<?xml version="1.0" encoding="UTF-8"?><svg xmlns="http://www.w3.org/2000/svg" xmlns:xlink="http://www.w3.org/1999/xlink" height="56.2" preserveAspectRatio="xMidYMid meet" version="1.0" viewBox="2.0 1.9 56.0 56.2" width="56.0" zoomAndPan="magnify"><g fill="#040606" id="change1_1"><path d="M 2 44 L 5 44 L 5 31 L 2 31 L 2 44" fill="inherit"/><path d="M 40.070312 31.675781 L 33.5 28.375 C 32.191406 27.699219 30.433594 28.003906 29.394531 29.089844 L 23.375 35.429688 C 23.070312 35.773438 23 36.175781 23 36.449219 C 23 36.9375 23.226562 37.394531 23.625 37.695312 C 24.234375 38.148438 25.105469 38.085938 25.640625 37.546875 L 30.730469 32.816406 C 31.414062 32.175781 32.464844 32.101562 33.230469 32.640625 L 33.234375 32.640625 C 33.234375 32.644531 33.238281 32.644531 33.238281 32.644531 L 47.550781 42.609375 C 47.632812 42.667969 47.691406 42.742188 47.765625 42.808594 C 48.996094 42.542969 50.90625 42.199219 53 42.050781 L 53 32 L 41.417969 32 C 40.945312 32 40.476562 31.890625 40.070312 31.675781" fill="inherit"/><path d="M 55 44 L 58 44 L 58 30 L 55 30 L 55 44" fill="inherit"/><path d="M 46.890625 2.140625 C 46.671875 1.941406 46.445312 1.996094 46.332031 2.046875 C 46.230469 2.089844 46 2.226562 46 2.570312 L 46 4 C 46 4.550781 45.550781 5 45 5 L 24 5 L 24 8.996094 L 36 8.996094 C 37.101562 8.996094 38 9.894531 38 10.996094 L 38 13 L 45 13 C 45.550781 13 46 13.449219 46 14 L 46 15.429688 C 46 15.769531 46.230469 15.90625 46.332031 15.953125 C 46.445312 16 46.671875 16.058594 46.894531 15.851562 L 53.820312 9.425781 C 53.976562 9.28125 54.003906 9.09375 54.003906 9 C 54.003906 8.902344 53.976562 8.71875 53.820312 8.574219 L 46.890625 2.140625" fill="inherit"/><path d="M 13.671875 21.953125 C 13.773438 21.910156 14.003906 21.773438 14.003906 21.429688 L 14.003906 20 C 14.003906 19.449219 14.449219 19 15.003906 19 L 36 19 L 36 10.996094 L 15.003906 10.996094 C 14.449219 10.996094 14.003906 10.550781 14.003906 9.996094 L 14.003906 8.566406 C 14.003906 8.226562 13.773438 8.089844 13.671875 8.042969 C 13.621094 8.023438 13.542969 7.996094 13.457031 7.996094 C 13.351562 7.996094 13.230469 8.03125 13.109375 8.144531 L 6.183594 14.570312 C 6.023438 14.71875 6 14.902344 6 15 C 6 15.09375 6.023438 15.28125 6.179688 15.425781 C 6.179688 15.425781 6.179688 15.425781 6.183594 15.425781 L 13.113281 21.859375 C 13.328125 22.058594 13.554688 22.003906 13.671875 21.953125" fill="inherit"/><path d="M 46.390625 44.234375 L 32.09375 34.28125 L 27.03125 38.980469 C 26.371094 39.652344 25.46875 39.996094 24.558594 39.996094 C 23.8125 39.996094 23.058594 39.765625 22.421875 39.292969 C 21.515625 38.601562 21 37.570312 21 36.449219 C 21 35.566406 21.324219 34.722656 21.90625 34.074219 L 26.617188 29.109375 C 25.800781 29.039062 24.929688 29 24 29 C 20.675781 29 17.800781 30.949219 16.382812 32.113281 C 15.675781 32.6875 14.785156 33 13.871094 33 L 7 33 L 7 42.167969 C 8.773438 42.527344 12.082031 43.398438 14.523438 45.179688 L 15.15625 44.128906 C 15.644531 43.328125 16.410156 42.765625 17.320312 42.542969 C 18.226562 42.324219 19.167969 42.464844 19.96875 42.953125 C 20.601562 43.335938 21.078125 43.898438 21.363281 44.566406 C 21.597656 44.445312 21.847656 44.34375 22.113281 44.28125 C 23.023438 44.054688 23.964844 44.203125 24.761719 44.6875 C 25.832031 45.339844 26.421875 46.476562 26.433594 47.648438 C 27.160156 47.589844 27.882812 47.75 28.515625 48.132812 C 29.527344 48.746094 30.109375 49.792969 30.183594 50.890625 C 30.765625 50.867188 31.339844 51.015625 31.84375 51.324219 C 33.246094 52.175781 33.703125 54 32.871094 55.410156 L 35.953125 57.664062 C 36.394531 57.984375 37.027344 57.878906 37.339844 57.445312 C 37.664062 57 37.574219 56.375 37.136719 56.054688 C 37.121094 56.042969 37.117188 56.03125 37.105469 56.019531 C 37.089844 56.007812 37.070312 56.003906 37.058594 55.988281 L 35.414062 54.8125 C 34.96875 54.488281 34.867188 53.863281 35.1875 53.414062 C 35.511719 52.964844 36.136719 52.867188 36.585938 53.1875 L 38.703125 54.71875 C 39.367188 55.21875 40.320312 55.0625 40.804688 54.398438 C 41.042969 54.074219 41.140625 53.675781 41.078125 53.28125 C 41.019531 52.894531 40.8125 52.550781 40.496094 52.320312 L 37.070312 49.804688 C 36.621094 49.480469 36.527344 48.855469 36.851562 48.410156 C 37.179688 47.964844 37.804688 47.867188 38.25 48.195312 L 42.46875 51.28125 C 42.792969 51.519531 43.191406 51.613281 43.585938 51.550781 C 43.980469 51.488281 44.328125 51.28125 44.5625 50.960938 C 44.757812 50.695312 44.859375 50.386719 44.859375 50.070312 C 44.859375 49.59375 44.628906 49.140625 44.238281 48.855469 L 40.410156 46.058594 C 39.964844 45.730469 39.867188 45.105469 40.191406 44.660156 C 40.519531 44.214844 41.144531 44.117188 41.589844 44.441406 L 44.53125 46.59375 L 44.539062 46.597656 C 45.09375 47.003906 45.824219 47.050781 46.316406 46.714844 C 46.75 46.417969 47 45.957031 47 45.449219 C 47 44.964844 46.777344 44.519531 46.390625 44.234375" fill="inherit"/><path d="M 19.609375 45.589844 C 19.511719 45.210938 19.273438 44.867188 18.929688 44.660156 C 18.234375 44.238281 17.289062 44.472656 16.867188 45.164062 C 16.867188 45.164062 14.988281 48.277344 14.988281 48.28125 C 14.566406 48.976562 14.800781 49.921875 15.496094 50.339844 C 16.195312 50.765625 17.105469 50.542969 17.550781 49.832031 L 19.460938 46.675781 C 19.664062 46.34375 19.703125 45.949219 19.609375 45.589844" fill="inherit"/><path d="M 27.480469 49.84375 C 26.78125 49.417969 25.84375 49.652344 25.421875 50.347656 C 25.421875 50.347656 23.535156 53.457031 23.535156 53.460938 C 23.113281 54.15625 23.339844 55.097656 24.039062 55.519531 C 24.734375 55.9375 25.679688 55.707031 26.097656 55.019531 L 27.984375 51.90625 C 28.410156 51.199219 28.1875 50.273438 27.480469 49.84375" fill="inherit"/><path d="M 30.808594 53.035156 C 30.347656 52.757812 29.710938 52.914062 29.433594 53.371094 C 29.433594 53.371094 27.550781 56.480469 27.550781 56.480469 C 27.265625 56.953125 27.417969 57.570312 27.886719 57.855469 C 28.363281 58.140625 28.976562 57.988281 29.261719 57.519531 L 31.144531 54.40625 C 31.429688 53.9375 31.28125 53.320312 30.808594 53.035156" fill="inherit"/><path d="M 23.722656 46.398438 C 23.027344 45.972656 22.085938 46.203125 21.664062 46.902344 C 21.664062 46.902344 19.265625 50.875 19.246094 50.894531 C 19.050781 51.230469 18.992188 51.625 19.085938 52 C 19.179688 52.386719 19.425781 52.722656 19.765625 52.925781 C 20.457031 53.34375 21.410156 53.113281 21.824219 52.421875 L 24.226562 48.457031 C 24.65625 47.75 24.429688 46.828125 23.722656 46.398438" fill="inherit"/></g></svg>