<?xml version="1.0" encoding="UTF-8" standalone="no"?><svg xmlns="http://www.w3.org/2000/svg" xmlns:xlink="http://www.w3.org/1999/xlink" fill="#ffffff" height="20" preserveAspectRatio="xMidYMid meet" version="1" viewBox="2.0 2.0 20.0 20.0" width="20" zoomAndPan="magnify"><g id="change1_1"><path d="M12,2C6.49,2,2,6.49,2,12s4.49,10,10,10s10-4.49,10-10S17.51,2,12,2z M12,16c1.1,0,2-0.9,2-2h2c0,2.21-1.79,4-4,4 s-4-1.79-4-4v-4c0-2.21,1.79-4,4-4s4,1.79,4,4h-2c0-1.1-0.9-2-2-2s-2,0.9-2,2v4C10,15.1,10.9,16,12,16z" fill="inherit"/></g></svg>