<?xml version="1.0" encoding="UTF-8"?><svg xmlns="http://www.w3.org/2000/svg" xmlns:xlink="http://www.w3.org/1999/xlink" height="91.8" preserveAspectRatio="xMidYMid meet" version="1.0" viewBox="6.7 18.0 114.7 91.8" width="114.7" zoomAndPan="magnify"><g fill="#100f0d" id="change1_1"><path d="M 29.152344 74.628906 C 29.054688 74.628906 28.917969 74.65625 28.792969 74.769531 L 18.890625 83.929688 L 18.890625 108.332031 C 18.890625 109.148438 19.550781 109.808594 20.367188 109.808594 L 31.429688 109.808594 C 32.242188 109.808594 32.90625 109.148438 32.90625 108.332031 L 32.90625 77.65625 L 29.492188 74.757812 C 29.371094 74.652344 29.238281 74.628906 29.152344 74.628906" fill="inherit"/><path d="M 38.78125 81.160156 C 38.214844 81.160156 37.660156 81.058594 37.136719 80.867188 L 37.136719 108.332031 C 37.136719 109.148438 37.796875 109.808594 38.613281 109.808594 L 49.675781 109.808594 C 50.488281 109.808594 51.152344 109.148438 51.152344 108.332031 L 51.152344 71.316406 L 42.039062 79.871094 C 41.15625 80.703125 39.996094 81.160156 38.78125 81.160156" fill="inherit"/><path d="M 65.457031 58.078125 C 65.359375 58.078125 65.21875 58.105469 65.09375 58.222656 L 55.382812 67.34375 L 55.382812 108.332031 C 55.382812 109.148438 56.042969 109.808594 56.859375 109.808594 L 67.921875 109.808594 C 68.734375 109.808594 69.398438 109.148438 69.398438 108.332031 L 69.398438 61.542969 L 65.816406 58.21875 C 65.6875 58.105469 65.550781 58.078125 65.457031 58.078125" fill="inherit"/><path d="M 74.234375 64.296875 C 74.03125 64.296875 73.828125 64.28125 73.628906 64.253906 L 73.628906 108.332031 C 73.628906 109.148438 74.289062 109.808594 75.105469 109.808594 L 86.167969 109.808594 C 86.980469 109.808594 87.644531 109.148438 87.644531 108.332031 L 87.644531 54.183594 L 77.359375 63.128906 C 76.492188 63.882812 75.382812 64.296875 74.234375 64.296875" fill="inherit"/><path d="M 91.875 108.332031 C 91.875 109.148438 92.535156 109.808594 93.351562 109.808594 L 104.414062 109.808594 C 105.226562 109.808594 105.890625 109.148438 105.890625 108.332031 L 105.890625 38.308594 L 91.875 50.503906 L 91.875 108.332031" fill="inherit"/><path d="M 118.039062 18.210938 L 105.199219 19.679688 C 103.089844 19.921875 102.109375 22.421875 103.492188 24.03125 L 105 25.789062 C 105.945312 26.890625 105.824219 28.550781 104.726562 29.503906 L 76.082031 54.425781 C 75.0625 55.3125 73.539062 55.289062 72.550781 54.367188 L 67.230469 49.433594 C 66.210938 48.488281 64.636719 48.496094 63.621094 49.445312 L 40.417969 71.238281 C 39.433594 72.160156 37.917969 72.199219 36.894531 71.328125 L 30.714844 66.078125 C 29.695312 65.210938 28.1875 65.242188 27.207031 66.152344 L 7.863281 84.046875 C 6.789062 85.039062 6.722656 86.710938 7.714844 87.78125 C 8.707031 88.855469 10.382812 88.917969 11.453125 87.929688 L 27.355469 73.21875 C 28.335938 72.308594 29.84375 72.277344 30.863281 73.144531 L 37.070312 78.417969 C 38.09375 79.289062 39.613281 79.25 40.59375 78.328125 L 63.644531 56.679688 C 64.65625 55.730469 66.234375 55.722656 67.253906 56.667969 L 72.433594 61.476562 C 73.425781 62.398438 74.949219 62.421875 75.96875 61.535156 L 108.144531 33.542969 C 109.25 32.582031 110.929688 32.703125 111.886719 33.820312 L 112.921875 35.027344 C 114.300781 36.636719 116.917969 36.046875 117.480469 34.003906 L 120.890625 21.535156 C 121.386719 19.730469 119.898438 17.996094 118.039062 18.210938" fill="inherit"/></g></svg>