<?xml version="1.0" encoding="UTF-8"?><svg xmlns="http://www.w3.org/2000/svg" xmlns:xlink="http://www.w3.org/1999/xlink" height="1885.5" preserveAspectRatio="xMidYMid meet" version="1.0" viewBox="75.4 57.2 1849.2 1885.5" width="1849.2" zoomAndPan="magnify"><g data-name="Layer 2" fill="#3a3335" id="change1_1"><path d="M587.21,747H236.85a91.43,91.43,0,0,1,0-182.86H508.14a409.66,409.66,0,0,1-5.16-66.6c0-1.13,0-2.27,0-3.4H236.85c-89,0-161.43,72.42-161.43,161.43S147.83,817,236.85,817H655.93A409.38,409.38,0,0,1,587.21,747Z" fill="inherit"/><path d="M1568.24,561.84a229.63,229.63,0,0,0-163.46-67.71h-88.29q0,3.27,0,6.55a409.45,409.45,0,0,1-5.17,63.45h93.43c88.87,0,161.16,72.3,161.16,161.16V747H1232.3a409.38,409.38,0,0,1-68.72,70h437.36a35,35,0,0,0,35-35v-56.7A229.64,229.64,0,0,0,1568.24,561.84Z" fill="inherit"/><path d="M967.51,666.28h-.42l-195.58-.76a35,35,0,0,1,.14-70h.14l195.57.76h.14a35.78,35.78,0,0,0,35.74-35.55v-.16a35.73,35.73,0,0,0-35.6-35.87l-124.84-.49a105.74,105.74,0,1,1,.82-211.48l195.73.76a35,35,0,0,1-.14,70h-.13l-195.73-.76h-.14a35.74,35.74,0,0,0-.14,71.48l124.84.49a105.85,105.85,0,0,1,105.33,106.07V561A105.87,105.87,0,0,1,967.51,666.28Z" fill="inherit"/><path d="M906,383h-.14A35,35,0,0,1,871,347.84l.32-83.9a35,35,0,0,1,35-34.87h.14a35,35,0,0,1,34.86,35.14l-.32,83.9A35,35,0,0,1,906,383Z" fill="inherit"/><path d="M904.49,769.11h-.14A35,35,0,0,1,869.48,734l.28-72a35,35,0,0,1,35-34.86h.14a35,35,0,0,1,34.86,35.13l-.28,72A35,35,0,0,1,904.49,769.11Z" fill="inherit"/><path d="M570.42,782h98.09q-11.68-10-22.66-21A371.78,371.78,0,0,1,909.71,127.33h1.48A371.78,371.78,0,0,1,1171.62,763q-10,9.91-20.6,19h98.09A441.64,441.64,0,0,0,911.46,57.34h-1.77A441.6,441.6,0,0,0,570.42,782Z" fill="inherit"/><path d="M1344.09,1599.26c-150.69,0-273.27-122.59-273.27-273.27s122.58-273.27,273.27-273.27h478.46V898.19c0-83.37-67.82-151.2-151.2-151.2H236.85a91.53,91.53,0,0,1-91.43-91.43,35,35,0,0,0-70,0v1135.9c0,83.38,67.83,151.21,151.2,151.21H1671.35c83.37,0,151.2-67.83,151.2-151.21v-192.2Z" fill="inherit"/><path d="M1889.58,1529.26H1344.09c-112.09,0-203.27-91.18-203.27-203.27s91.18-203.27,203.27-203.27h545.49a35,35,0,0,1,35,35v336.54A35,35,0,0,1,1889.58,1529.26Zm-545.49-336.54c-73.49,0-133.27,59.79-133.27,133.27s59.78,133.27,133.27,133.27h510.49V1192.72Z" fill="inherit"/><circle cx="1366.51" cy="1325.99" fill="inherit" r="62.17"/></g></svg>