<?xml version="1.0" encoding="UTF-8" standalone="no"?><svg xmlns="http://www.w3.org/2000/svg" xmlns:xlink="http://www.w3.org/1999/xlink" fill="#ffffff" height="46.2" preserveAspectRatio="xMidYMid meet" version="1" viewBox="10.5 8.9 43.0 46.2" width="43" zoomAndPan="magnify"><g><g id="change1_1"><path d="M48.518,32.572h-0.295c-1.989,0-3.653,1.385-4.171,3.306c-1.421,5.265-6.189,9.143-11.884,9.143 c-1.91,0-3.725-0.447-5.331-1.226h-0.01l-0.001,0.001l3.724-2.52c1.08-1.08,0.322-2.928-1.208-2.932h-4.349h-8.385 c-0.478,0.005-0.91,0.19-1.222,0.502c-0.308,0.308-0.493,0.739-0.497,1.218v8.385v4.349c0.005,1.53,1.852,2.288,2.932,1.208 l2.491-3.68c3.392,2.28,7.468,3.61,11.857,3.61c9.855,0,18.152-6.704,20.567-15.804C53.478,35.329,51.416,32.572,48.518,32.572z" fill="inherit"/><path d="M15.774,31.426c1.989,0,3.653-1.385,4.171-3.306c1.421-5.265,6.189-9.143,11.884-9.143c1.91,0,3.725,0.447,5.331,1.226 h0.01l0.001-0.001l-3.724,2.52c-1.08,1.08-0.322,2.928,1.208,2.932h4.349h8.385c0.478-0.005,0.91-0.19,1.222-0.502 c0.308-0.308,0.493-0.739,0.497-1.218V15.55v-4.349c-0.005-1.53-1.852-2.288-2.932-1.208l-2.491,3.68 c-3.392-2.28-7.468-3.61-11.857-3.61c-9.855,0-18.152,6.704-20.567,15.804c-0.743,2.801,1.319,5.559,4.217,5.559H15.774z" fill="inherit"/></g></g></svg>