<?xml version="1.0" encoding="UTF-8"?><svg xmlns="http://www.w3.org/2000/svg" xmlns:xlink="http://www.w3.org/1999/xlink" height="60.1" preserveAspectRatio="xMidYMid meet" version="1.0" viewBox="1.8 1.9 61.2 60.1" width="61.2" zoomAndPan="magnify"><g><g><g><g><g><g><g id="change1_4"><circle cx="24" cy="24" fill="#A2BDCD" r="21"/></g><g id="change2_1"><circle cx="24" cy="24" fill="#608EA9" r="17"/></g></g></g><g id="change1_1"><path d="M24 38L16 25 24 29 32 25z" fill="#A2BDCD"/></g><g id="change1_2"><path d="M24 11L24 25 32 21z" fill="#A2BDCD"/></g><g id="change3_1"><path d="M16 21L24 25 24 11z" fill="#769FB6"/></g><g id="change3_2"><path d="M24 38L16 25 24 29z" fill="#769FB6"/></g></g><g fill="#A2BDCD" id="change1_3"><path d="M19,57l-4-4v2h-4c-1.105,0-2-0.895-2-2v-4h2l-4-4l-4,4h2v4c0,3.314,2.686,6,6,6h4v2L19,57z"/><path d="M45,7l4,4V9h4c1.105,0,2,0.895,2,2v4h-2l4,4l4-4h-2v-4c0-3.314-2.686-6-6-6h-4V3L45,7z"/></g><g><g><g><g id="change4_1"><circle cx="41" cy="40" fill="#FD9" r="21"/></g><g id="change5_1"><circle cx="41" cy="40" fill="#FFB41F" r="17"/></g></g></g></g></g></g></g><g><g fill="#464A51" id="change6_1"><circle cx="11" cy="24" r="1"/><path d="M15.707,52.293c-0.287-0.287-0.715-0.372-1.09-0.217C14.244,52.231,14,52.596,14,53v1h-3 c-0.551,0-1-0.449-1-1v-3h1c0.404,0,0.769-0.244,0.924-0.617c0.155-0.374,0.069-0.804-0.217-1.09l-4-4 c-0.391-0.391-1.023-0.391-1.414,0l-4,4c-0.286,0.286-0.372,0.716-0.217,1.09C2.231,49.756,2.596,50,3,50h1v3c0,3.86,3.14,7,7,7h3 v1c0,0.404,0.244,0.769,0.617,0.924C14.741,61.975,14.871,62,15,62c0.26,0,0.516-0.102,0.707-0.293l4-4 c0.391-0.391,0.391-1.023,0-1.414L15.707,52.293z M15.937,58.649C15.794,58.27,15.429,58,15,58h-4c-2.757,0-5-2.243-5-5v-4 c0-0.429-0.27-0.794-0.649-0.937L7,46.414l1.649,1.649C8.27,48.206,8,48.571,8,49v4c0,1.654,1.346,3,3,3h4 c0.429,0,0.794-0.27,0.937-0.649L17.586,57L15.937,58.649z"/><path d="M48.293,11.707c0.286,0.286,0.715,0.371,1.09,0.217C49.756,11.769,50,11.404,50,11v-1h3 c0.551,0,1,0.449,1,1v3h-1c-0.404,0-0.769,0.244-0.924,0.617c-0.155,0.374-0.069,0.804,0.217,1.09l4,4 C56.488,19.902,56.744,20,57,20s0.512-0.098,0.707-0.293l4-4c0.286-0.286,0.372-0.716,0.217-1.09C61.769,14.244,61.404,14,61,14 h-1v-3c0-3.86-3.14-7-7-7h-3V3c0-0.404-0.244-0.769-0.617-0.924c-0.375-0.156-0.804-0.07-1.09,0.217l-4,4 c-0.391,0.391-0.391,1.023,0,1.414L48.293,11.707z M48.063,5.351C48.206,5.73,48.571,6,49,6h4c2.757,0,5,2.243,5,5v4 c0,0.429,0.27,0.794,0.649,0.937L57,17.586l-1.649-1.649C55.73,15.794,56,15.429,56,15v-4c0-1.654-1.346-3-3-3h-4 c-0.429,0-0.794,0.27-0.937,0.649L46.414,7L48.063,5.351z"/><path d="M45.239,18.414C42.754,8.93,34.321,2.215,24.47,2.005c-5.874-0.126-11.448,2.045-15.69,6.11 c-4.243,4.065-6.649,9.54-6.774,15.415C1.778,34.147,9.347,43.472,19.705,45.532C22.165,54.994,30.779,62,41,62 c12.131,0,22-9.869,22-22C63,29.319,55.348,20.396,45.239,18.414z M4.005,23.573c0.114-5.341,2.301-10.318,6.158-14.014 c3.857-3.695,8.929-5.672,14.264-5.554c8.669,0.185,16.138,5.909,18.655,14.096C42.396,18.037,41.702,18,41,18 c-0.015,0-0.029,0.001-0.044,0.001C38.418,10.795,31.708,6,24,6C14.075,6,6,14.075,6,24c0,8.084,5.327,15.068,13.039,17.271 c0.041,0.717,0.115,1.426,0.223,2.124C10.276,41.202,3.805,32.938,4.005,23.573z M25,23.382v-9.531l5.446,6.808L25,23.382z M23,23.382l-5.446-2.723L23,13.851V23.382z M32.313,19.791l-7.533-9.416c-0.379-0.475-1.183-0.475-1.562,0l-8,10 c-0.189,0.236-0.261,0.544-0.196,0.839c0.064,0.295,0.259,0.545,0.529,0.68l8,4C23.693,25.965,23.847,26,24,26 c0.018,0,0.035-0.012,0.053-0.013c-0.372,0.449-0.721,0.915-1.057,1.393l-6.549-3.275c-0.401-0.199-0.884-0.11-1.185,0.219 c-0.302,0.33-0.349,0.819-0.114,1.199l4.858,7.895c-0.576,1.832-0.913,3.768-0.986,5.77C12.472,37.057,8,30.986,8,24 c0-8.822,7.178-16,16-16c6.651,0,12.476,4.01,14.876,10.104C36.566,18.327,34.36,18.908,32.313,19.791z M20.905,31.063l-2.215-3.6 l3.226,1.613C21.547,29.719,21.209,30.381,20.905,31.063z M41,60c-11.028,0-20-8.972-20-20s8.972-20,20-20s20,8.972,20,20 S52.028,60,41,60z"/><circle cx="28" cy="40" r="1"/><circle cx="54" cy="40" r="1"/><path d="M41,22c-9.925,0-18,8.075-18,18s8.075,18,18,18s18-8.075,18-18S50.925,22,41,22z M41,56 c-8.822,0-16-7.178-16-16s7.178-16,16-16s16,7.178,16,16S49.822,56,41,56z"/><path d="M36,45c0.076,0,0.153-0.009,0.23-0.027C36.681,44.867,37,44.464,37,44v-8c0-0.552-0.448-1-1-1 s-1,0.448-1,1v3.764l-2.105-4.211c-0.208-0.415-0.67-0.633-1.125-0.526C31.319,35.133,31,35.536,31,36v8c0,0.552,0.448,1,1,1 s1-0.448,1-1v-3.764l2.105,4.211C35.278,44.792,35.627,45,36,45z"/><path d="M44,37c0.552,0,1-0.448,1-1s-0.448-1-1-1h-4c-0.552,0-1,0.448-1,1v8c0,0.552,0.448,1,1,1s1-0.448,1-1v-3h2 c0.552,0,1-0.448,1-1s-0.448-1-1-1h-2v-2H44z"/><path d="M52,35h-4c-0.552,0-1,0.448-1,1s0.448,1,1,1h1v7c0,0.552,0.448,1,1,1s1-0.448,1-1v-7h1 c0.552,0,1-0.448,1-1S52.552,35,52,35z"/><path d="M35.555,32.832L41,29.202l5.445,3.63C46.616,32.946,46.809,33,46.999,33c0.323,0,0.64-0.156,0.833-0.445 c0.306-0.459,0.182-1.081-0.277-1.387l-6-4c-0.336-0.224-0.773-0.224-1.109,0l-6,4c-0.459,0.306-0.583,0.927-0.277,1.387 C34.474,33.014,35.095,33.138,35.555,32.832z"/><path d="M46.445,47.168L41,50.798l-5.445-3.63c-0.46-0.308-1.081-0.183-1.387,0.277 c-0.306,0.459-0.182,1.081,0.277,1.387l6,4C40.613,52.944,40.807,53,41,53s0.387-0.056,0.555-0.168l6-4 c0.459-0.306,0.583-0.927,0.277-1.387C47.525,46.985,46.904,46.86,46.445,47.168z"/></g></g></svg>